<mxfile host="app.diagrams.net" modified="2023-12-02T16:04:15.824Z" agent="Mozilla/5.0 (Windows NT 10.0; Win64; x64) AppleWebKit/537.36 (KHTML, like Gecko) Chrome/119.0.0.0 Safari/537.36 OPR/105.0.0.0" version="22.1.5" etag="iRm7HCkg9Bw3eRZ2vuto" type="device">
  <diagram id="1zqcbN6F4oswYscPb19s" name="Страница — 1">
    <mxGraphModel dx="2207" dy="1895" grid="1" gridSize="10" guides="1" tooltips="1" connect="1" arrows="1" fold="1" page="1" pageScale="1" pageWidth="827" pageHeight="1169" math="0" shadow="0">
      <root>
        <mxCell id="0" />
        <mxCell id="1" parent="0" />
        <mxCell id="yJo0Ja2LbVW5zeD0Xldv-24" value="" style="rounded=1;whiteSpace=wrap;html=1;fillColor=none;" vertex="1" parent="1">
          <mxGeometry x="650" y="-446.9" width="110" height="130" as="geometry" />
        </mxCell>
        <mxCell id="yJo0Ja2LbVW5zeD0Xldv-10" value="" style="rounded=1;whiteSpace=wrap;html=1;fillColor=none;" vertex="1" parent="1">
          <mxGeometry x="260" y="-550" width="700" height="330" as="geometry" />
        </mxCell>
        <mxCell id="yJo0Ja2LbVW5zeD0Xldv-2" value="&lt;div style=&quot;font-size: 1px&quot;&gt;&lt;font style=&quot;font-size:22.58px;font-family:Arial;color:#000000;direction:ltr;letter-spacing:0px;line-height:120%;opacity:1&quot;&gt;Api&lt;/font&gt;&lt;/div&gt;&lt;div style=&quot;font-size: 1px&quot;&gt;&lt;font style=&quot;font-size:22.58px;font-family:Arial;color:#000000;direction:ltr;letter-spacing:0px;line-height:120%;opacity:1&quot;&gt;веб-сервиса&lt;/font&gt;&lt;/div&gt;" style="verticalAlign=middle;align=center;overflow=width;vsdxID=5;fillColor=#e3ebff;gradientColor=none;shape=stencil(vVNBDsIgEHwNRwxCjHqu+g9iaUtEaBa09fdSwdpi9dBDb8vOwOwsGcQyW/FaIEqsA3MRjcxdhdgBUSp1JUA6XyF2RCwrDIgSzE3n4VzzjtlVV3PvXmjDPdLdoOQRTrvtavNqnAKXw9mDELkBIhDJaxrJZIy/YRLfbjFvpcVgHHfS6JGu4lAK7GVwoXg5gmwjRP3VjoMpqQcm9tPKs0z0Y6crWcBHqt0PN8tJspXFfmNKdpaBH8tYwML/VPjiE6dCKhXSOMTT+PlWiC47PgE=);strokeColor=none;spacingTop=-3;spacingBottom=-3;spacingLeft=-3;spacingRight=-3;points=[];labelBackgroundColor=none;rounded=0;html=1;whiteSpace=wrap;" vertex="1" parent="1">
          <mxGeometry x="-30" y="-437" width="211" height="84" as="geometry" />
        </mxCell>
        <mxCell id="yJo0Ja2LbVW5zeD0Xldv-4" value="" style="shape=image;verticalLabelPosition=bottom;verticalAlign=top;imageAspect=0;aspect=fixed;image=data:image/svg+xml,PHN2ZyB4bWxucz0iaHR0cDovL3d3dy53My5vcmcvMjAwMC9zdmciIHdpZHRoPSIzMiIgaGVpZ2h0PSIzMiIgdmlld0JveD0iMCAwIDMyIDMyIiBmaWxsPSJub25lIj4mI3hhOzxwYXRoIGQ9Ik0wIDE2QzAgNy4xNjM0NCA3LjE2MzQ0IDAgMTYgMFYwQzI0LjgzNjYgMCAzMiA3LjE2MzQ0IDMyIDE2VjE2QzMyIDI0LjgzNjYgMjQuODM2NiAzMiAxNiAzMlYzMkM3LjE2MzQ0IDMyIDAgMjQuODM2NiAwIDE2VjE2WiIgZmlsbD0iIzUyODJGRiIvPiYjeGE7PHBhdGggZmlsbC1ydWxlPSJldmVub2RkIiBjbGlwLXJ1bGU9ImV2ZW5vZGQiIGQ9Ik0yMiA4QzIyIDcuNCAyMS42IDcgMjEgN0gxMUMxMC40IDcgMTAgNy40IDEwIDhWMTBIMjJWOFpNMjMgMTJDMjMgMTEuNCAyMi42IDExIDIyIDExSDEwQzkuNCAxMSA5IDExLjQgOSAxMlYxNEgyM1YxMlpNOSAxNUgyM0MyMy41IDE1IDI0IDE1LjQgMjQgMTZWMjJDMjQgMjIuNiAyMy42IDIzIDIzIDIzSDlDOC40IDIzIDggMjIuNiA4IDIyVjE2QzggMTUuNCA4LjQgMTUgOSAxNVpNMTQgMjBIMThDMTguNSAyMCAxOSAxOS41IDE5IDE5QzE5IDE4LjQgMTguNiAxOCAxOCAxOEgxNEMxMy40IDE4IDEzIDE4LjQgMTMgMTlDMTMgMTkuNiAxMy40IDIwIDE0IDIwWiIgZmlsbD0id2hpdGUiLz4mI3hhOzwvc3ZnPg==" vertex="1" parent="1">
          <mxGeometry x="530" y="-422.5" width="52.5" height="52.5" as="geometry" />
        </mxCell>
        <mxCell id="yJo0Ja2LbVW5zeD0Xldv-5" value="" style="shape=image;verticalLabelPosition=bottom;verticalAlign=top;imageAspect=0;aspect=fixed;image=data:image/svg+xml,PHN2ZyB4bWxucz0iaHR0cDovL3d3dy53My5vcmcvMjAwMC9zdmciIHdpZHRoPSIzMiIgaGVpZ2h0PSIzMiIgdmlld0JveD0iMCAwIDMyIDMyIiBmaWxsPSJub25lIj4mI3hhOzxwYXRoIGQ9Ik0wIDE2QzAgNy4xNjM0NCA3LjE2MzQ0IDAgMTYgMFYwQzI0LjgzNjYgMCAzMiA3LjE2MzQ0IDMyIDE2VjE2QzMyIDI0LjgzNjYgMjQuODM2NiAzMiAxNiAzMlYzMkM3LjE2MzQ0IDMyIDAgMjQuODM2NiAwIDE2VjE2WiIgZmlsbD0iIzUyODJGRiIvPiYjeGE7PHBhdGggZmlsbC1ydWxlPSJldmVub2RkIiBjbGlwLXJ1bGU9ImV2ZW5vZGQiIGQ9Ik0xMyA4SDE4QzIxLjMgOCAyNCAxMC43IDI0IDE0VjI0SDIwVjIwSDIyVjE5SDE4LjZDMTUuNSAxOSAxMyAxNi41IDEzIDEzLjRWOFpNMTkgMTdIMjFWMTVIMTlWMTdaTTEyIDkuMDk5OThWMTMuNEMxMiAxNi44IDE0LjYgMTkuNyAxOCAyMC4xVjIwLjZDMTggMjIgMTUuOCAyMy4xIDEzIDIzLjFDMTAuMiAyMy4xIDggMjIgOCAyMC42VjExLjZDOCAxMC4zIDkuNyA5LjI5OTk4IDEyIDkuMDk5OThaIiBmaWxsPSJ3aGl0ZSIvPiYjeGE7PC9zdmc+" vertex="1" parent="1">
          <mxGeometry x="677.38" y="-425.25" width="55.25" height="55.25" as="geometry" />
        </mxCell>
        <mxCell id="yJo0Ja2LbVW5zeD0Xldv-6" value="" style="shape=image;verticalLabelPosition=bottom;verticalAlign=top;imageAspect=0;aspect=fixed;image=data:image/svg+xml,PHN2ZyB4bWxucz0iaHR0cDovL3d3dy53My5vcmcvMjAwMC9zdmciIGZpbGw9Im5vbmUiIHZpZXdCb3g9IjAgMCAzMiAzMiIgaGVpZ2h0PSIzMiIgd2lkdGg9IjMyIj4mI3hhOzxyZWN0IGZpbGw9IiM1MjgyRkYiIHJ4PSIxNiIgaGVpZ2h0PSIzMiIgd2lkdGg9IjMyIi8+JiN4YTs8cGF0aCBmaWxsPSJ3aGl0ZSIgZD0iTTAuOTI0NjI2IDEwLjYyNjZDMi4xODgxMiA3LjA4MjA4IDQuNjY2MjQgNC4xMTQwNiA3Ljg1Nzk1IDIuMjIzNjNDMTguODY5OCAyLjMyOTE3IDI2LjY2NjcgOC4xOTc4NCAyNi42NjY3IDE1Ljk5OTlDMjYuNjY2NyAyMy44MDIgMTguODY5OCAyOS42NzA3IDcuODU3NzkgMjkuNzc2MkM0LjY2NjExIDI3Ljg4NTcgMi4xODgwMSAyNC45MTc3IDAuOTI0NTYxIDIxLjM3MzFDMi45MzE5IDIxLjYzNDIgNS4xNjAzMiAyMS43Nzc2IDcuNTU1NTIgMjEuNzc3NkMxNy43MjU3IDIxLjc3NzYgMjQuODg4OCAxOS42NDk0IDI0Ljg4ODggMTUuOTk5OUMyNC44ODg4IDEyLjM1MDQgMTcuNzI1NyAxMC4yMjIxIDcuNTU1NTIgMTAuMjIyMUM1LjE2MDM0IDEwLjIyMjEgMi45MzE5NSAxMC4zNjU2IDAuOTI0NjI2IDEwLjYyNjZaIiBjbGlwLXJ1bGU9ImV2ZW5vZGQiIGZpbGwtcnVsZT0iZXZlbm9kZCIvPiYjeGE7PC9zdmc+" vertex="1" parent="1">
          <mxGeometry x="827" y="-423.75" width="53.75" height="53.75" as="geometry" />
        </mxCell>
        <mxCell id="yJo0Ja2LbVW5zeD0Xldv-7" value="" style="shape=image;verticalLabelPosition=bottom;labelBackgroundColor=default;verticalAlign=top;aspect=fixed;imageAspect=0;image=https://upload.wikimedia.org/wikipedia/commons/d/de/AirflowLogo.png;" vertex="1" parent="1">
          <mxGeometry x="300" y="-376.9" width="155.17" height="60" as="geometry" />
        </mxCell>
        <mxCell id="yJo0Ja2LbVW5zeD0Xldv-8" value="" style="image;sketch=0;aspect=fixed;html=1;points=[];align=center;fontSize=12;image=img/lib/mscae/Docker.svg;" vertex="1" parent="1">
          <mxGeometry x="350" y="-480" width="73.17" height="60" as="geometry" />
        </mxCell>
        <mxCell id="yJo0Ja2LbVW5zeD0Xldv-9" value="" style="rounded=1;whiteSpace=wrap;html=1;fillColor=none;" vertex="1" parent="1">
          <mxGeometry x="291.59" y="-510" width="190" height="230" as="geometry" />
        </mxCell>
        <mxCell id="yJo0Ja2LbVW5zeD0Xldv-11" value="" style="shape=image;verticalLabelPosition=bottom;labelBackgroundColor=default;verticalAlign=top;aspect=fixed;imageAspect=0;image=data:image/png,iVBORw0KGgoAAAANSUhEUgAAAd0AAABmCAYAAACOR0tsAAAAAXNSR0IArs4c6QAAAARnQU1BAACxjwv8YQUAAAAJcEhZcwAADsMAAA7DAcdvqGQAAFAHSURBVHhe7d0JgGRHXT/w6k2y2WR3k93NnZCEBIjcMYAgiqAieII3KsoRRRQPFEQOAf0DInhf4IGCGBQliqiIIIfKqRAgciUhBxByX5tjs5s9kul/far716npdM90z/TMLtn67ta89+rV8atf/Y6qevVed7oZqaGhoaGhoWHFsaZ/bGhoaGhoaFhhNKfb0NDQ0NCwSmhOt6GhoaGhYZXQnG5DQ0NDQ8MqoTndhoaGhoaGVUJzug0NDQ0NDauE5nQbGhoaGhpWCc3pNjQ0NDQ0rBKa021oaGhoaFglNKfb0NDQ0NCwSmhOt6GhoaGhYZXQnG5DQ0NDQ8MqoTndhoaGhoaGVUJzug0NDQ0NDauE5nQbGhoaGhpWCc3pNjQ0NDQ0rBKa021oaGhoaFglNKfb0NDQ0NCwSmhOt6GhoaGhYZXQnG5DQ0NDQ8MqodPN6J83NDTsZ5ibS2nPHSnt3tNN23emdNuelG6+rZtDPt+dEuOw8eCUtqzvpCM2prTh4E5atzalAw7o5W9oaJgOzek2NOxnoPG3Z2d7a3auN25L6dobu+nyG7rpihtSuvrWbtq6I9/bldKu21Na00npkINSOmp9Sidu7qR7H9dJpx7bSVs44HXZAWeHLA10+seGhobxaE63oWE/gBnt7uxEr7+5m867bC59/up8vq2bdmbnuifPaM1qd+QgzZ65brojpxeAUxUOWpPDgZ208dCU7pOd7/1O6KRjNqe0Ps9+D89OeVOeDR90YC9tc8ANDaPRnG5Dw90Y2X/mGW1Kl1/fTedfPpcuuz7PZrd20zU35/jd3cQ3Hpi95IHZoYaztNGDUWAZHDnf23NBt9/RW34Wv+GQlO6RZ76nZed78jGddFh2upzvYdkhb8rnGw/JZbYl6IaGu6A53YaGuyE42+2cbXawF1/RTZ++tJuuvLGb9vSXjGGg+flYTsU76V+H01WWc0cOeC5fRDnHZcf7oJM76YQjO8VhK4LTPebwTtq8MaVDsyM2+21oaOihOd2GhrsZOMRrb+o52o9f0k03bOumO3Ich8kp1su/lD8canGyEfrxg/P6Ogebr26/o5sOyNPi47d00kPv3UnHbOqknbt7ic1yN23IzjfHHZUd8KEH31lnQ8P+jOZ0GxruRrhtV0oXXTmXPnFxN11yTTfduD071OxsD/astb9uPM6RCvOcb30/0gtltpuduF3P2fFypg/Os93T77mm7Gz2XFidHC9nu2VjngkfwQl3BrPshob9Fc3pNjTcTeCVn3O/MJc+dP5cuv7m3szWTJSjCyUPpyrCsVy77J+7GOl4+0fIxRbH69qMd9ft3bRhXUoPOXVNuv+JnRLP6UrHx3q96PBDUzr56E468rB981nvHXkEcdttt6UdO3akbdu2pZtuuilt3749HXTQQWnLli0lbNy4Ma1blxva0LAMzMzpEtTPfvaz6ZJLLinCuiYPqzt5CKz4Xbt2lfCABzwgPfrRj06HHpo1cIa4+eab0wc/+MH0pS99KR188MGl3oB6DznkkPSYxzwmnXLKKYWuhtngqquuSv/zP/+TrrnmmnTggQcO+L5nz560e/fudL/73S894hGPSIcddti8PmmYLWjwttu66ROXdNN7PjWXtu1IaV2e2XJ2uE7BpZl37DtNYeBk434dJ1Tx4BCOV7o92ena/XzqcZ30LQ9aU57hlp3P8mQCOGCZNx7aSacc00lHb+qkgw/KcXsR7BIny2Z8+tOfTldffXW69dZbi+3icLdu3VrOyfVRRx2VjjjiiLRhw4Z09NFHp/ve977pPve5TzryyCOLU47yahmXl25cdtllRR/ci/s7d+5Mxx13XNGN448/vtmkvYDrrrsuffSjHy39c0BWlOiDuSysbNexxx6bHvrQh6Z73OMegz6eFWbmdAnpW97ylvRnf/ZnxQjXAmgU6fobv/Eb0wtf+MJ0xhln9O8sHwT4TW96U/rjP/7jQb113c4f+MAHpl/5lV9J3/AN31AY3DAb/Od//md61atelT7zmc/M4zmR0udf//Vfn175ylcW59sMy8qA9t68o5s++Lm59N7PdNMBuRs43MLufK/v70qAOK+d6riZLWc5L85JnDsKOc2eO3pO17PbR98/z2bz0U27nYmFIO0duaJ1B3XSvbLjPf7Ived4GdYrr7wy/fd//3f627/92/S5z32u2BHxAtkVwjSSXc7XkQHevHlzetSjHpW+93u/Nz384Q8vs+BavuXjyH/zN38zffjDHy4D/1o/lM1hv+Y1ryk2adZGvWFxfPKTn0y/9Vu/lT7wgQ8M+hmcC/e85z3Ts5/97PSEJzyhTBpmiZlZQqNAhBKuW265pQgvaAAhu/7669P5559fBNwIc1b41Kc+lf7mb/6mzLDVGQxU57XXXlsEmmCfdtppzfDPGPpRv9b9DeINwswY9EdtcBpmB5J+686UPvr5bnr7J7ppbRbv9WtTWsvpYjmH55D/EH3HCLGZamzI+eS5S7ocD44lSJMTqfP2soGrt+TsJmee/XGWgV7aA3IBO3d304VXddOVN/R2QK8myCKb8LrXva44zJ/7uZ9L73//+8uScjhUy8eWkTlWs1vh8MMPL6tzVtGAzP/jP/5j+vEf//ES3vWud93FpinHAN/sWfnskToE+U0QxDXd2DtYu3Zt6R8rtFYlwn7dnoWY7brxxhvLjHclMDMvZCRo2cXyMYGzpGJZlzPetGlTGdlZwvm3f/u39PnPf76fa3nAoEsvvbSMWjHRiEQ9FAUNBNz1Qx7ykLKc0wR8tsBf/a6PGSkjfvzWD+JjdtCwMrBp6mMXzqV3njuXNh+SHe46H6/IN7KYE3Wc5zQdSf68ID4Hx/o6QuQvTnUo/SCf0L93QI60pHzTdoPsXrxBAYfL+bJpJV2eiu++ved4r9rae/d3NcDBnXfeeekVr3hF+vVf//Uy+DcD5WA5VA6XvIbjXb9+fZFrssx+1fItDyPNOP/v//5v+vjHP16cawz4QVnSxfNgQVnK4bylbTPcvQf+IgZWcdS3zsMh65+VsF8zKxFxxxxzTPq2b/u29FVf9VVldMfJETCNILjwiU98ogj8LEYRHK6RqtGKOsKpcsaWizDwYQ97WFlebg53ZcB4MGgGWY4RagPUMHvs2pPSORfNpfd8eq58pvGw7HB94IKUE/XiPDnMfHQd8YNQX1f54jhwsK6VM5xfqNJ6asO5lu8152Mv9E7KIactjjefHJgd76493XTJ1d3yhazy/HcFwUG+973vTT/7sz9blpPNbBjZk08+ucxiw7myEWY4X/7yl9PFF1+cLrzwwjJBEJx7/nvDDTcUg3zSSSelE088sdiaUbMiddb6IJ009MS9mFk17B2QTX0i6B/9Ul+ThZXyGXRpZjBCtFnKA2ijR0KmEWDkR1gtRRoZcpgat1QQ2gsuuKA8l1GOkSnHH8zkiCmFQcAJJ5zQz9WwEgjHq0+c6+c2w105cFJmih88v/cMd4PvH2d2FyeYwzwHmS+KA3U/4oZCOOhR94S4P6/cOFdfde3ExzNiWbkX+o63HyQ7KGfy7eeLrvT9525x2CsFj7V+4Ad+oGxsigkA+xRyaoLgUYiZr0kCh2yDE/sRztVKGftmMM9pm9myb8pQ5jh5D8ONB+Fw67QrZdgbFkZPJnthtTFaUpYIwmSn37d8y7eU2S7BjA0KGkdoCep73vOestuY8C4VyrZZgfNWbwg+xSHcYAOP57kcfsPKQd9yuiHA+qE2LA2zAxZ/+bpu+vD5c1nOu+nQPMuNV3CKExScx7Vj7gq9UZxnP0TaUXH5/53566Cc4TihX7bXk9BCCga7o53nPxxxL/SuwbPgbbeldGluj09VrgQ8O7WkbCDODnC2bIXreD3IRMDRzPfJT35yetGLXpRe9rKXpZe//OUlOLcR88wzzyx7Q9gXs1uOmj2rZX8cwrk6yh82qTnd/Q8zt4wc61d/9VeXZV2CRbgJFsdL2I0MvWryf//3f2WpZikg5F/4whfSOeecU87Vow5lc8aC2a0dhp6lNKw89G+gOd2Vg41Tn/1yN11zo53AvU1T7DZ2M9/OS3Ae1/nofu0wnQ870HKtnKH44VDqivMq3qz7YE43+x8z3fIsNwfuSJxjcbx9hyyvuK3bsnO8qVuWzGcJA/6//uu/LvtIrISZELBP4fjC2ZrNcqp2G//yL/9y+smf/Mn0Yz/2Y+mHf/iH05Oe9KT0Qz/0Q+X6F37hF0qaV7/61cU5xwoax1vLP6ijDvSBY3YO6IC4bth/MHPLSLgsz9i8xOERRkIZ8HCao/ScxI5jM9NpIc/HPvaxsu3bsxjOPEaaZs9GsPe///3L0nIz/isPvI/VDKiNTcPsYLfvxVfOpS9ePVee35YfKcieC5uF2hkOQs5XX89ztO4N33c9XM5wunxeyqni9Hwe86Z1a8UahN25pDzS8Tp3keELVlfnQcRWn6uc77uWDLLodR1Olw3gdMNOkFWTAcGKnNcYPe/9pm/6pvJepg2g7FQE+eR3z2uPT3nKU9Iv/dIvld3P3/md31ne2ZUu5B/kIf/iBOcmB2GPpIc6T8P+gZ4EzBhGcQ960IPSgx/84DLaNKIEgkegLfFwuDZBWaaZFsqjUJZ3PIMhwMqmRITYtffnjGAbGu4uuHl7N51/RbcsyfY+ftFzcGQ//y+BTecQw7kOzku6O+PmnbtX34/zKi6uozz1WE6OL17xpgYBPgPJj3Ce4VhHhd6MNzujnNUk8ZbctutuzgPqGb2lwTb4ZsBFF11UdqWyO2EjDMoN3Nmol770pemJT3xi2Wk8KThUH9p56lOfWpafvctpQ5bywdGqWw12SVykadh/Qb9mDk7PCPK7vuu7ioCa6fYMQ6dcC96Xs6HKF0HMfCeFUaql6f/6r/8q54Q5Ro8USd2+GvPt3/7tg/iGhq90mA1+4ZqUtubx69psz72iM3CA+f6arFtxHjNV1475//xjDoN7dXC/n6bcV06+LuVGnIgcwnlaRuZgfQqSupUPXnCq/Rkrxztwvm6NOII0N97aTTfksNzXiNgT+z3sOHbOJrAF7A+na2nZxODpT396etzjHlcmAdNCeVbZ7nWve5VnwbFsHYiZLhsVdirogJjhutewf6EnASsAI0szTYIJIXyUgDBaavniF7+YPvShD5VR6aTwDMa2f3ls9Y9nI4RYnNHkj/7oj5aRaMPSgZ8R9gXU9OwrNK0mtu/Ms9zL5tLuPd3s2Dwj7DnAQchp6JVzSl3ul7j6/vy4u5Qh9OPcU47znnfMIYODtcxtEOC3dbftzAOBHd10a56hdvLsO/uV8hWscLagu/gWxwjQS2PptVe8T1nekAcVy/1ohj0jf/7nf15e/YlXFckM22OVzNFSsk2W7NRy0OM5Jo0GJxuO1uSD0wf7TmaJ/V0/auzrfOhJwwqA8/OFKjuZjfpC2AmgEZ9nJD5qYSezd+ImGfFhouWid7/73SU9h64s8a7jqzDPfOYzJ9pAJQ8lMEP2LNg3nG3uMgv3bU5OnHIoNxRmEjproE27ja5HBfdqRFvcszSvfi/h24WJrqDJvaXQMwrqVJY2GtQwWpb/8dpKhEcAeIRWaVcawbOgR1+gAz3C5ZdfXvoJH6JfJqUreCvIJ8R1xE3bxpCjusz6eriPpwVH5wcMrt+W0u353JIuO8/Ul+O80F9qzvfq2WnEzTv2Q6ThG2K5mEPcncnekZ3pzdmxXpd9xNbtPYfoveAj81j6pKNTuu89Unrk/dakJz58TXroqb3ZtjSDV4ZyXRGIaomLIK6cW2bOs9Bc37bswHfs6j3zXSrIroAX9pc4hkyRJ7bhW7/1W9Opp57az7GyiPrJicA2Lkdvoy3kK74KRye0mS012BDHptFbMrjU+mrZHg7TlluX5RhhKWXVkE8Z2stWeJ863qtmM8W7X5ff05MsrHsBK/orQxrq1aDnPOc5RSA8W7GUo0pOA0N8UMMWfc9H4jNr48D4+16mUSwG+ig1J64e5XFONjr88z//c3HGoxAC67kO5+IrWQYEOoYRd1QWxeDUY1OFGbXnPpaSvLMnPkawC0E9dlqrhwKEAoL2egfQrNzAhOChQVq80R5GAn2crbxm93ho0IJ3NnE4yr8U4J26vHqljhBaiuueshknm0i02+oFo2Wl4p3vfGf61V/91eII8QNNeKWdyvnar/3a9Id/+Ifl1a1JBVydHCojwnAox4DDAE28cuxCxTdHfYQePCRf6BoHfLe6IjjXx44hE/ivDXg66RfMOH304R+5kUeIcvWVXa7KW2of7chO7yMXzKXzLmO4U1qbRTsXXc5JkvMS6vP8p47rObdegLgX8eWYy9uTA8eu6QdxwDm4tzvHHXxg5v3GlI7OwY/XH7elkw7fkHLoFEd84ZW9V5nAzmpl4OBdjrnM+jrUSHv86P2px3bSiUct7dvM+tA34H/t136t2AsyQU/Zi+grM1zfBPeGxUqB3KLBBEG9oRd0Hg1o+td//dfyhsVCMltDn9IP7WK71MFG0A3XzrXT7D7eLSbPPhLkmr2MZe9JQCfoIP1WZ/AxNoSRbWWyCYvZbvnoHduiHbXtjDKVw85MqifKYa+1nb3A1yuuuGJgy9hKEz/l4kXoIbo55d///d9Pb3/720tZ4tBAh5XH5r34xS9O3/3d313KmSVW/Kf9OFubFf7lX/6lEM9xYSrhISQ61ovrHK/nIwvhfe97X/nWKcdEmDCK4VSOWSqGvvGNb0xf93VfV+JraKZRoXScmmc+BgR2UXNsMeJCjwDorNljswRFNUr2WpROHOfcA4TMhg4zevUTNmUKHMb3fM/3pJ/+6Z8uQktY7MpGF6FAK4VFF2EgnPKH0niBHy3K8AnOWGqfRKnUr0wK9U//9E/lw9/4yDDEwEM5+IjXIcCegT32sY8tfeXDJC95yUvKR0qW63TRY3ChLP38kY98pChQrDKgRx8FTerDM/UZGBhsoY3DxNdaqQPqeNvb3lYGbYwJJVMevkb/y/uDP/iD6RnPeMaiyhaGhJFHM/qjf9xTn806Xjkhk9Ns1qnhO8XvPncube9v9DebzEX3nGZ2VI5xXY6DkOWsHxfOVUS5F/H5aCadm98rSzflsGl9Sidmp+oXgTYeko3SIT3H6vdxfYyDQzx4bW9WDWapn710Lp1zUe/Z7iF9u+l+KbJ/9Mdx1AwcPY5++P5+J65Jh2capoV+/ZM/+ZPyfWVyiOfkRH/Qc/DdZa8IxSs/K4FZO92gn12wAdWHPtgLuqpcdZBhfR76Ec+ZDTy+5mu+pmz4il9HCtlfCHSPjv/BH/xBkfPgI9rVYRXB3hm7uengQqBb7OBZZ51Vrmv7jG5lew2LrqBvMaDDZIGdYFt9g5+jZSeEsOH4wE+g1UebrLziBR/yR3/0R+mtb31r4dlqOt0D/l9G/3xFoNE66dxzzy0zFQ3DYB3uHHMIISPOONedUYNgcaicg/yMozIwjHMyo7QLkbF0v4ZOVbcOevOb31w+Vv6Od7yjvOeLwYRZJxAy9RAQQuxauXGkSJy0b7hyDkZ5hG0czcAI6FifoVOPctXFwRk9KoMDNzjRvr/7u78rdBm9xgxc/UFTHAkHoUOHstAhLDYICKABP17/+tenf/iHfyj1o099+IW32kW41a8OisdJu08olcEAoMMARd3y6FP8MmqllGakCym4PsQnA7PXvva16T/+4z8KPfo12h7KLihfP6EVjzhnv3Tky0PSGYwYAAzX6RrNBjZ+1ks++WPQpv3aaFDm06HoX6hvtRGtjJJlPUqvLG2JmUcM0vBgobIWwsVXd9PFV/VmhAcNFaGJWhktjese7rxwuDO+jxzB+ZbntNlGcaSnHd9JD7v3mnT6KWvSA07qpHsf10knH72mzGyP2NhJhx3aKa8FHZhnvTV7d+zspi9dk9IN2a+Jt0wNyh8g0vePVfYCaS1pu7M527kN2dHXdUwCPy9qzwf9YQfIJHkFfUzfvu/7vq/0y6QzqqWAbHBY5Ji8hl6weeSWLP7Ij/xImYWR6YWAfvJE1v7qr/6qzM7oPXlTFv2gQ8oUQj/IOvmWl82iH2QbD8yG0bIQlGvTKkdJV1yrj1yz2cq3whQ/37kQ0McOGmigO/SODVSWx0fsv7JG6W4NOm7Aga6//Mu/LPuClIHn2q0uPHVkK9GMB3jGfsVAnc76JDF+iZMHr7XL6oDfETCZmbWcrLjT1RgdbPpvt7IGxIyMIGokhpmlGomMYjjmGcm84Q1vKELDkRMYTOJ8MNtIxrt2XlOqhZigmG16Qd6vEVkSxXwGllKixRFdjsqOUaLRT4yUHLVFeRQaPZZgCYoOHKc46jEqJbzKkTZGVdFOTsvP5BkVEw50GF0FXWgJ+moanTMksUtT2/F6IYEFgmjwYkZAkV2bEaBLPY7BFyHO1aGv0Gs0SsC9ukVx5AvBlW4ap0sJzRb91Jlvc+vv+CZu9EXQop7ok6BTvZQYHxg59xmDUbKEP/rQIBCN6lCOPHhAHjlNbTQiJlejQPE5aAMl/cvoWOZGC74oh+O2MrMcA5+rSZ/7ch6U3NJ7JSecmVaVkP+UFsYR+ucl5AS9f87dvBNllps9nTePjtqU0umnrkmPOM0P0Wcnm2e5G7PTW9vftLUQcnelm7an9KVre68zqcZMdoBR5/2jbzEPHHM+QQ+aD1/fSZs29J4RTwpy4wcIvJurf/QrPSPfyqQrBvdPe9rTynLrQjK5XMzK6ZJVzuHss88u7TJYNBAlqwIZr/VDcB36Qa4FdhItnC/aPCYjrwsNBNHr0RibiYdWBpSlDjTTpdNPP704SrQsBqtB+odDkxftaNRvdOaRj3xkWRFaaGapX9ldq1UGIJwvnaN/aNP2sAl0zrl47eRM2VdtEceOc/auw5+shtNdRJ1mAyMrv61qBoJpMf3HbI3VqPi1DveGQUgtgRrFhpARWvkJoGAZQB21ALuPgQTVqMjMTmegJ54HhhLEDIWx5VjMauVFr7qk01GcAYejHI5Sx5tFq2sU0BOCrRzngnYQLkJtMEAgAW0EkRDG7CuUFg3aHs5HOsKu/WacHIl8i0GdHBzHiybKF3zVRjRruwEOIXXEG21EM/78/d//fekTNMoTijiOD+OA98qyDE2B9AuB1z60xYx+mBbx6gqecI5eFaOQ0dejeIFnlqK/+Zu/ubSZkqkL/XisDIYOb6yIoG8UGC5pPArAE/nRgmb3lG3AwYgsR2nNIG/b1S2/HkS0c/EjA6kfXI887zleZRRHlkNxcPn02DyL/fr7rUmPyuGEIzu9XyqaEpzuLTv6DjQXSgwMGBzvEnKSOHL8dTxa7Wi2mcoO6WlAT8ijQDb0J5nUdhBHVsl7bSf2VaCXY7A6Z7ncoJJcoZ8ckzfya9Ab+iHQTzwgx3hANjk5si29la0oz/VCkL/ITg5hgyLgIfs4rc7LJ9RlT1KGNGytgS6bqY0mMewFGyDQNU5UOnyIwI6y2fhm8MF2GYBoh/jVxKpIHuZyiN7bBYaMgmA2JRAsD1p6IDzD4CQYUY6RAAWTCJWAkZ6NECpl1tABjDTGM8Lqwmgd6F4MAKJDCLUQnceAyicNQREvXYzGLG34MhY6xiEUXJ0CQQV0KE/dYfQpgfrQ5VxaTrW+hhBWgoYWimfWStgWglmlJRlOWt2U0VHdytZm9WmvdhpgcITShXK4p83KQCt+LUVwtUmf+6k1I04DmuB93Kcs6KJY+jcGPPol+g5d+Bd5rWxYNTBDGDYq0prlnHnmmWUGqmxtcNQ2+ZUln2U8S9HB84B0Vm5s2MNv9cqDFvzT395Tf/zjH18M5HJwY3Zmu7NolU1NRDuH3IReyHGD8xzcJ2p1XInP2cq9fCGIy00oDveIw1I649ROmd16djvNzDKgvFtuy7Nc42W2M4fyDDmfYp26xoY7s5RQqs8nNo8ZbEwDOlgPlAOhf+LIDhuwr6CmcxjspIE9J2ngiW6DbDoP5FZ7yap4+sEJmUzggfyC+2wNfabH+GQJ/i/+4i9KuQuhpi90JPShPp8G8gn0JezmJGVJa3LC4dL/cLb6FJ3ui2e/6LGBONsl0FE2DjhrjwmtVLEh4skIGiDkZaWwsqVXMMu1fMywhqHUuGgwY8WxGn04DxAsDjmcsbTBIAYZoy1L2LAyzvBHHp2qU8xiGXmjSPE2/Ng9/axnPassUf/8z/98ufaLScrn0GrDDCHAjK9lHx05CvKMMvygLMaa06QUDLjy1HXve9+7zMYscTDclEMgJEGDI/7Jj2eeG0sT94eBFrPAP/3TPx0oYQiiPHhjgEJoLRv9zM/8TNkoZSPcc5/73PSYxzympLWUqw+VIeDhUmBm7umGgUAoUPSt9ojXpzaK+VQfOmyAsSxnRYDBQTNatA1fKZc+i80m0gwDzZbilcMBaw+eg7LIKCPmMYQRsf6veY4uP1yOfv2nPPWjmZEj6zat1D8pOa5PFsPWWzMv7sgyk1ncc5zkpx/y/cF5FXTHqPgI/pjlbsi+56vLs9s1ZYPUcuCb0N6zVS5oboTMmp5TreIG94R8b7DRy3mOsGnMzwROA3qG/3gefAfxwX/G+CvB6aLZ80Z7PMxe2Rp6Tl/JKB01CSG7HoN4Q4R+2LzlG9EmOdKyB6EjeECf6L38Z599dllhpC/jQKaHZbemeRz9w2C3wq5HeY513ywEaUy+rIqZQOlDuideUDY9Zb8MzG3KYjPCfnmk4Mcq6HkM5AV5h9szaZuWihV/phuIxmCcZUTntTMUdAxm+m5yzKzMWiyvmFlRGIInD0HhpIzqOEgvu8cIsAbhYjwJFyFVprI5FU7kO77jO8rHzL//+7+/lGE5kBP27WjPfxhU+RhvHUSQg3adrpN1oh3YnKN7NeTlDA0cpEdvCIq0jhSHsTBK5WR9z9UOS4YbPRyDtklPgQhq0OGIRjRQMLv/PK8ZpgMMNgijujxDx09AA2EUrw2WRX/xF3+xtMnzmjPOOKPwy+5leaSjxOFwIOpzdA+dCz3TlcYzZTsPOUp80Ra0kAM84Yh9dP55z3te2XWoT2w64zDJgc0d2qTsGHApQ91o5JjHPeeW3kjYwIvz1J/BY20S9DlFRoeNY+6TO8+xGTd9qww80Sd4KD9afTi/nuUO1z8JmKKLruhmx9u7VkQJvcsC5xE3fA5xjJPi4LKH80MJ9z52TXrovXrPT5cDO5cvuLxbdln7cIfnzmgvpdZFjzsP5LiI7nZ7G7c2bxiVcDT0u4G7QDb1F3mgG/pbf9qDYXd6yO1KAS3LeaZLtv24gpkumxgONwZ3Ap1hs0JXOV96SubZLs6VHpFhdeNB2FtAI/vlbQRlDYNMe8vDChrZpkegLPfw2DPPSZ7p6gPl0DV0yQv0SXl0nt1l79iDYaD1TW96U3n7AO+CH4AW911rv30UfrQCb9gM/NDvVgLwzaBZe/Bj2H4pS/9o61f0M13Q2Ta3eJ5mJKITMFtjdQADhRGWDzhm93SITre5hsIQFoaOc3HEQA7GDFonjEJ0qLzq8I6emaxfCvm93/u99PznP7/EoYkwROCU/GCCUSMHqIPQzClAOE1B2UHfMLRb3mFEPkqhHTr32c9+dvqd3/mdMjqjRL4fTQh/6qd+qryfTJA4AEKDNyEoQROIr68DhCmWg4GwoU1aebSN0Pqa1wte8ILCE3wIUHwrCu750LtNFTErHmU0FoJ2e85uJqpO/a+fAC8IPcVjHM1sGZBQMEfOnDM2gOBY9S86AspTDrkx2KGQw8A7eS0BWyXBA+UE/9SDBkvUdnjHLkcrJJbmGEX9Gn2Lr2iwQkFexm3Amgq5G3fmSQinpqvLLDdHD85Hhf59YTiNa+/imlVuyY72Xsf2NkstB0TNMrDnr8pHs7h5IUeXGW2u+y73hkNOa7a8c08uU3qVTAB9FjbDMXTAMQbjzvX7SjvcaTBKd7SBvJnV0RVyiO5oH/2wGsNGeDRjRSzaCBygma7ZL5vBNrKXbACQWfnVbU8CXQz9q4Ff0oadqRG2Di9H3R8Gx7VU54UOs332gs3BD3ShWZvoHnrYLPbcJIz9DrrCZti1zp57FBl2BsIOxnnYmpXCqjld0PmeozFMmBTKoZGEBiPNXi0xG50JZrrSGnkw/DpZ0IEYayQzbrSobHUIRjmYbsnBSIhD48AWYrAyzXA4G/WjQ5k609E1Whxrh1xDGaOUXB7CIhidcWYcntnksKBrKzqMvDiKcAyRJs7VFfeGYUnGlv1wJhBtiDxGg3jkXb5RUIdZq8GIUSnBFZQR9ycBRfGcikOk/Jw7Hukn/ECP2eKZZ545GF0PwwDKHgFOU/2hQGjQPsHrAZ65G9iM4ok69a3layN9ThNtyhDIG3C8Zi0crUGh3ZzKlwfPQ/HJMIUmW7NSXN80Zg5HOdlBXL4/7151LU0J/Thc4AAPyyJgx/JSNk3VwFa/hZvFIPPizvLLsX8e19KW8wj9uOFzabzCxEdkkieGPh7uZ9e1sY++3Rcwjg4DeJtG0U6O0B/yRDfIm0dfVujG6SqweVby2JcYiMqvLNeCa4NI9mEUhm1R8Dj4TP4n4ac2jHPgi8Fg2NsinsGql94qRzvwQhvoosGH1ctxEzD6bNWOHTXJYjfkV2bQpT3KXQqdk2JVna7GcJAMNucRRhs0kvFlvGyuMaoxQyFUZjRGKJ4rCn5Wy5KKo9kQ4RoHHWSmpIxwtgw25k4CNIfDh3AwIXjoFofuEMQa0YnDYOApF34YmXFkHNBC4PCkibqBo1K/a22t79XwypKZX7QHpCN0HBYh5HANiBYTuFgG56SVoe3Bl0mEVX0GUwYqHBW68SkGSGg0wzfQGNdP4smQWar08gVcU3Lle0Y+aqYbwAu8D0cpbfBPHTHY4mj//d//vfzQhjToZrSkZRQALQYBM5nlZqDCrA854Tyxd+BIq7j8v3ccFTILHQE3vY9r2dZz3IhfKrzja+ey3cZRFHpHhv69uzjeyBPnuUyz+9L2fD0NRsl+7XT3NQzrCzn2+M2qVEwyQLs4F8Fkw6zOM8rF4NEU++KRHT2tddXAkQwbSJLrUQgHFximdxS/R0E59GspMCCwMdKgNwa66hXYEjTRPQ41JhTj4L5l+FjJo8v1xAGUP4kdWypW1ekCI2bpgxAw+NFgDMQE5xyEJQ+Nl9ZDcB+9+Imf+InB0bKJeM8T6qWVGhhnqYVB5Zyt7RttTQuCyVFTXnSGo4PonNroTwKGWtstuZutT0KX+oeVIGhBFzrxbBjuWa6yLC0tPkcZlNgAwAybI11MaIHyeLbqmQmaRgnuOKDFzFOdzuu2yO/a0jVjsRhPtFX98ihLgKDDfUYGr+PeMORlvCxX6+PgEWgnfuCXRx5mBPhoJB2DMDKsDnFm52YVYShnAWTjEDYJAycbIXe3Li/B/f75vPv9I3jeunl9p3w7ee2B+cYywTled0u3bKRSH3qxbxCqa/cizEsj9OPKvX7o+jMFxvUx1PKxL4OsGhwL7FroI5mkM/TVzngTl0lsBh3wSI9DIuvyh80gw8owOLW3IuR+MSgn7ExtC1cK9l3wCWyMSUc4b/WauGgHP2DCsBjQHptUDY4Xsw8rgb4qrh50skZzNBio0wSN1pEMFkNmKcFzCCMbM1kzMUbRkrCAYY4YHgIwDAwmuEaGZkXSipsG0jO6ZpmOgFYdXnfU8PViiPTKnzRfjBa1N9oRQh9tHTWapGiehdT1RP6IMxiKUeQksEPXEhee6q+6/Y7j+IFeI9d6OTjScd6ulVs/kxkH98mTdjuPOuOoLZRKXeLGgeOOd3eVJT2eKRPPxUnjNQOPPzhY14BmPDfStrRMJheje1IoxYcr4kcIBk51+DwfYzYbob4f1yBuc7bjHK+PbSwXZrjX3NR7r9brSLpy4DSHgi4YhLiu7g2OuVwB4X2yJ8YomQN9Mqt+WUlwrL5XYPBHfg2kQbvomTj7WAxKJ9VVjpu9jPTKCv0AR7NITq0GftHXGsFHeeL+OJ7PCgYF3g6JOoVog8BuWc1cbKUwgB/slwnZKNqj3JXCDNRuOmAYATDF53x1WizPQYy+GDjCh+HLgY5iFNU7CowrAbek47mB9zLtdLa8bZeqo1GW2Vk4PFhOpwQtyiDolGkSjGpDLSBoC/pqUGTOAZShzTXkMaCYZOQcYAwIe+RRRtAXA4FR4AQNqDyvlz5odwxHbFl5eIk22hkB5OcADYg4wXC2cR+0dZJZuEGHVRQzCDKHZ7XBUT7Z5IBjJqtsfKXANk8ZLIwa9CwHB+XZKOeItSXkuMF5FafXY1Y7CKPS5rBhXebbunz/rqIyFbD5lttSuuHW3Od9louLgOXFuVbxzgdOWbw0OZR74voh2jANyEPI4FcqyJRBabSD3Ea7BHpHVsnipJCPo6GjtW6A8sksGxz6VwM9C+nOcHmzhrpjJU07alvpmi6yXRxu6OViCD7GwDn8g6C+Se3xUrFMtVsaNNjystmuhjLE0egwbJ75cXheCVmo05cC5VmWMLrjaH3z18evX/7yl5dXQQS/niN4o8qrLb7egr6FHPg0iPYOO8CVgLYKoSCEynnwlbDi+zQOA+2EVt5hvnBWtcOqgQ59y6nFDBUtgnOGAV12K3LO+B7BQExwbpOUcqyGoL2eEdQIJRqOHwUy6ZUraclk3TdoU49BBhqVKY02eHzhGdFir01MC+w8ONuR8jWqfO66hP69CAMnW8WNuhdYl1l18Awec+7KtunqG3tfzIryBzNXx3zNqcb1wKmKj7gqzyBfDvUnLydFyOFXKsgduSJ32kF2az2iawKZm1ZXOWoDVOcRB+ogz2R51AQHLZPozkoBP2KlCs21Lrumj3gSDnRSaHMMQuSPcwHPV7LNe8XpYpbNOJ6lMZYYKmgoYcIEoxvv13rPrZ4JLwfq8MqHTze+7GUvK6/mvOIVryg/8eQDF75A5NmG92q9H2fHqg0GZrrDyxvOJ4E6V8Ox4h0+jXJ2aI9nlWgPoQrBopCeo1LmaaCfQvmHhVQ9o2DFwOYmtBh9Sxd5w2lZYfAjAvpIMPBxNCgSIu43fuM3yjebLfmG4oBjnNftXAzK8OMEnv9T7jBC0ZYoy7X7Bg6eyduIZblvXJuXg/XZQZYfOchFK33gWJ33onvXOdQONuLy/8F5KSNn8oMF3qctcUsEll5/czd95tI8QMnifUCuFJfFRwgHmrt6XnwJddp8PkjrItN1YG6zMCnwniwKdT84D52I89XQx6WC8zOrI79kDb3RHnFhH+s2LgZp2dtYPQpbKz6O7K0B7DD2ttNFa71SRe8ATULwIvR9Wiijlhn1RF0rhaVROgNwtp6D1btGMVTjMdKSgdlMfGVpKYwIYZHXM00/ehBO1gezvQdnV5x61EswGU87iiO49jzYKLHuWOmjoxaCukc5QrS5p+1LRdAQ7Ry1jKpuymS0KG3Uh9fuCZ6Ze04Us8VJgR9Rv3KCjogfBQMA30fmsNQX6Rw5XSNXv4ZiB7tvH/vU4rjgvvcMOcdQPqGmK8qeFPraTnl7CPBzuO+UFXwjEz4s4HnwtAOWSXHYoTY85Xr715pSO9V5DrYKw/Hg+fDBufvX5UnBtLPIYdg49fGL59LVW7vlR+tVgd04PmrmWseNC9IQX7PjdXlQsG6y1cIByECsntSodUKfjlpG3RdAXodlbrgtZLu2Q5OCbhnk4kXtuOgbm8DZm5AMI3Rob0H9wzYt4F7QNy2dbA8fg5f4IT9eC9OWNS32mtPVOK+c+PoSAxfLn+IpDwExK/Jc1/PWYeM3CZQln91vPqdmZuSzfpasGUwG1oYdTsfSofQ6WAjDqkOE4Y6XdhLIR5FqRKcqg9BPWtYoyKs8wjPO6cbyTCyNCuLl0zZtr3cFToOoP8oD/TeuLM9yfdKT05UuIK+yKANayIR+MRDST8NBvGe5sZlOfdE25TouBcoxI1C/cvAt2gXOjf7F29jn+fOkGziWgsMPzTw5MA8k8jkxISnCSGcbafpBmpKun8eSbflt3Ox03V8qvJf7kfPn0oVX9MopX6DKfMElrBoch87v4njdq/K47wf0nfvN3mk/TUm+Ywm17jOyGTqm78jevoqQt5r+GuPiF4K24w15Hi5bnHviTEz2BqJvloJhezcp2Az2w5F8LLWcpWCvOV0w0vBc17M0nV6P8ggDA2h52czHTHhagcNIBt43Rn3k3wvn4jCacjLw6uB4LM2qPxwsQWC4w3mID8ciSDMJPZF+FKKOWUBZ42gSD9JEiHRxXAodygnIH9fqizqHEenqvMNwL3i/UAjnypAaqetDIZboQpYm7StgkD1WMBuXfxRfol5Gyp6ApQ4KJ8HG9b3nr6jHsnC2xaH24/L/3nH4XMiJHOXPLCuffLSJainwTq5vQX/wvLn06S91047dvWe5Qm+W2pN1rFZfOQ6d38Xx9uMieAXJcb3Bwbpc8BTgPMzoyAb0aOkNCOOarMzqcdVKYCG9WA5qfazrEB/8mfa56FJQ6yE69NlKtXkhoGMauzBLzMbiLwOWb72La2Zh6ZGxBEaNY2QEvbNrY800DJLWsqMXvy0jM6LKMzuxBIXhll3NgqW1m9oXoZ75zGeWD/371KHPRfoIhy+/eHYnHQF13FsdthTgJcFGb4SIY6AMKDiqadsT6aOcUB48qpW8hh3P+tqAp04jL5r0v5UIm9w8+10sSKcPBTIiOFdGPI+KPpsEdq/7QQiG2aCwbldAHGOBZz6Y4VdPPAJZCRy6tvcRC44IFbFDGUlCON5wfhHquPw/tz+f58SHH5pH+QeLmRzqNru98Mpueve5c+lTX/RerpWJfDMHnFV+7ET203y9Yz8+Bz09OK/j+0eFyG+p2iWH6yMe04D80G+rIPqslkPXQuwpCEezr0EbQjdHYVz8QiD7dNwx+ACO+CA4t7djNaHOGCAtBXVbpgW/YtDsOErHVxJ73elamrN5xS+yWAYlHGA2EdvcfcDcbGJSwwkEyYcMGEQfNmBAOV3lKodRVbbNXH7sgIP17WMOl+P1AQ5fsHr605+envSkJ5VnnhBKPKnSjhKs6GB0rLTyqztm9eoaNkLuEzzGaFpaOEiODWqh1a5xfWU52LNyAx/5pYu8+l+c+z7U4RN2fjDB5x7JyOMe97jyAQpxfgzCbygLPuNYB3Fe4fFtWu/eeoQwiXKTCc+Kfe+bUzVACAS/BDSTIysmnL7Nd1ZRVqIvs4imTXm264hNODXvmENxvNV1iYvzHO+PV3pc+2Uhz4gXgp7j/G7Os9ovXtNNn7xkrsxu3/epnsO9ZUevb9WrmwcONl87ug4ZKNfuDYU7082Pc7Rju7zSVIifHPqG7PhAif7Wn/rEOV2nAwZkVjJsLNwXQa7QG3qB7kDor3vTQHoOxoZD53WZyqPDbO2oL/uhBx0rgdCnhbBYmqXSxs6wezU/4ziJrVgO7uT+XgIB4NAYxnAIIN5yB6Z6wG/mMo1RMwux9OedW2XEQ3MChuGWq71XaUYr+GanWbd1fs/04kMcBgXyQk2fDopOWgjqJLijIH+MQFcK6qdM2qGeUNwwRILnrN4NjAHPpOAkCa5ya97gt3JHgSPz8XH1yy+v9I5hCDlXP3TgY+42vo0K7r3yla8cG9y3y9mgyYvznOhCUD9j7DU15wy0NjgnM1ZNYuYMaFamdhgQ+sbzSs12t2xYk9bn2Wk4oYFD7QesjhltHV8HS8OevW44JNPdF0dN0eW37coOdnvvIxdfvLabPntpN33swrn0ofO66X3/N5f+/RNz6f2fm0uXXd+bwapPmTihjAjFafbj7nS09CQfc77iaIdDjs+HMihwbUDg14UO8xpqrmNa0OH4+hIbQN7ZEX1p8Gl1y2qGPtvXgEZyh158cx0yCHSMjtZyOAmkpd9saMhtxAvsIVvH9g1DWnlWAupezKarm44FDXW7xS2Vtmi7/Pga58HzlcTKlj4hCJowjGAAIeMYHCcFg85Zc66cnhDMJLgU0kauJz7xiWUzjFnLOGbrjLqzp4Eyhw1+CAthmtbRTQv1UCjOznkIWPBDMMtlhPBqUlAWjggf4zqgbG0bBQMYS/WO9XN6tAF+KItj9rk7v75kNcJzf6shdryL82EV5YwL+lQar0Lp2yh/HDza8JlH+wcMuOQB9GkjHqE32ilev0or3mzXq2XTyOikMDs9ZlPmUT7HLk2ZF3K848Dx9oPr2kF7BWddFkXnfq/2qq3ddOEV2cFekB3rOXPpze+fS29471x60/vvSP/28bn04c/PpYuvzjPb7b1nrTlbeX1JmegoTjPH6cES8p8S+ufu9+KygavvR8hx4FxadVhKP35zSuvXZR3p358GBpcG8fEIqXYwnJnZr+VlM959EWhEOz0I21H4lwPZI1/aMI2cycseyjOsm1F2bEgcRgw+h7GYPo1DnU+92uk4DmhdzDbjS21/JgHZEJQbNAjKw6Oltm8S7BNOd7gj4khI3MMYu5snZSxmEkx5aihHJyoHo418PV8c5yACo4QCXZN0jDSjyo92oXWlwcF5XhNCRqgADdqGV2ZpZq2Twui47hNlB5/UIYziD4PiO88GAXXbpbUJRnme4RswBe+i3+oQdUwSRtFRg1P1W5/qNZDAL3Wgz2APv+JDLviknc6FmAn4kIePrDjOuk892zxmU1bVXA8Od7LXy83qOdf8pw7heOc525zW+77ep/3vPGP9i/fekV7zrjvSG/7zjvSWj9yR3vWpufSxi7rpvMu66dI80732xpSu35YHInkM1nsHNzuDLMLxmpFuvtOh5tCPi3jNj/ujHG+dd5Au5/HLQodkOo/Z3Fnyxzv0lQGb1apSZw76I2TA0QDLIJMjWiks5kzGAf0x4wz5jXK0g96hn85OU75VpKCpls9wMAYr9eOUAD2oIX8ECL4uBnWP4sli+dWPLoMRdMcgKvLRXXaL3g6XvRAMlGOlreaHciexGctBX432PQQzgpEccM2cxTDMzFGYtJN0wFI7YSU7b1JwdEaL2iugKdoe9FHmafjLaPk6FFCIUN7FQIm88hMfwqjzeK7kvvemOd1pR69LhbbYbMcwMXjBH4ZNHCPuGb8fHTdI82yMPKIPvZy0a++Uv+Md75i5Mcci7+tynJxpL45M5mP/fgT3w/GWkP9wuodkJ2Yz1Ac+203v/MRc+mie3Z53WW77dX6wwO/X9mbBve8yp7RxXe+6fKAil1E7UYEHdR1x5Sjaef9Y5ynx+U+kuTOut/Stq72Xa2l5/RKe59awwuGRAlhODpnXV5yL/rHB0psRoQfTYrF8S5Vdeur3weksZ2Jg2+vr3gyM4zJL91bGpLSTzdizIU/wA+i9azo8PNMdVX7QIuDnpHovXTjMGovldZ8ThLBPQb+jNunPaSYN0lluj0lZlL9a2Gecbs1cwGDCEh3vepQQjIO0o9IvZRSj7uE805axN6HNDFHM4CwZ1Q7WuSU3S6uxXLwQCPq5555bfn6MEeAsKe0kPJEmNnY510eOAtoc9bsNStMsd4+CstEaxmYUOFBfI/OcD58sF6NDeqNn7YpfVLLZDh/Fc8gxyw1jQpHNdv1CTM3fWWBtruLYLZ7HBs/MPPuOV8hpSojroTjk7Nrdu950SCcduT7PbrJzOzSXy9llm9hz2Pl+z2v2ArbNc56i+9eDkMseONG43z8O8g7SZL0cKsOy8u355qYNnXTyUZ2pd1cPw/6QZz3rWWWZ2UoF6Cf9a7DHAVjV4HjNGpcC5WkLWaUzZCwgftqZaICz9TaHzYBoD6eLdvpLby644IIiY3WdC8HeFnnQo5ygi8Ml62TcT2mqZzHIG+m0m8ObRNYNfrQnaADlTOK0PaePnzGs6ZfPuYGxNhqITAJvOOAfmrRdmZO0fVbYZ5zuYiBg0xgyTIzOrRFCIyhvMcGVnnBxABQssNodtVzYXMIYAacRtFNiS89eqTrrrLOKswuhHgU886PuZnXSAqdDeScFp2v5j8CHwYq+FcfweBXnAx/4QDEM00J5FNwggjIaBRscDEMcJ/nmN7+5GLdYDWAwjYb1uZ3TfrfZs2Gvovjko0EGWZAO8JIxZxTV94Y3vKEo9Cxhg9GJR3rPlvPKfZe7SA/6ZR9H3VlmuP3jcMDeXbsNRHN/ZbXwdSpp8/8ecrx7Ix0rh1nH5XPX0pbQP6/v18dBupywl6bneMWZ5e65ozeIOGZzSkdvzgOLyUVpJOimHcx+i5tcxiqOehl5Mk/uXvva15bn+AZe09gWiBmnL9r5KpqZZK03pY3V9aRArx/QoK/yB91kDN30wzfH6Z/jYnVom6/v2ZEvPxlVlnwGHPjgs6e+rDZsz4avA2jERzLOmYczHQV8on/02UBd3mltJ6drcyU7ZRd22GzlGCTjEVtxzjnnlPYsBG22/+Jd73pXScsWsTfT0LNc7PNON5gRwjcJ5OEICOgoRKdzGl4nGmWQA4yx10E4GkZW3hCcryQY9fuReoJGcLU/+ETw8NerWYQxXi0YBbM5X/ciuJyUEGXBJH0kj9ewbI4ySuXg5BMYBmXZlPSa17ymjEgndbzawFHqLz9S8fznP798m1kdw/2lLgMNMx7tZYwoH2PCgDIUBilmHByu/GjDQ68sUd5wrO6RNWVwxnbM+453PUibBexgPiHPdn1RyruwwKEW/rtw7lDi5gcOzhJyWcrN57785DwcouLy/94xzutraYeuB+f9MChHqNNW17mLytEfhz0yZRxzeCfd8+hOWUKfBQyCvPpnZSLex9Tn4XQFsvzbv/3bZaXD7IcdmER+ze58Ke93f/d3yw553wqPAdgsQA4tj+tXMh1OJmins/YgvPrVr17Q8Rpc+5wqh0QvyGcMkOWhV8r22+QxIK+hfnWGbgfkV468HgOdd955RWdqKB+fOEJvE/gaoMc4Hs9on/uT8BrYJz8oYnMkmiMfutgStMSre2gZ53jRY7DCJpAJdMhLd1fTnh/w/3w5fi8DE40YGcBYehRH4CgCgbb88chHPrIIzmLQGfIZ3VkCNTOJWYwQ9ykiwbFzL5adAuqkiPLrJIZcxygnOkg5OhK93hulKASyBmE0EuY8pIvNCpRA3Qz64x//+JFCPwzC5JmhGVws6SpDmwij+36MnaEZpkNaM7XXve51pW1GiOgXtEcZ4i0zczgE0vMv95StHQYeb3vb28oPRnA6Rp6ENhC85WzwxbNQDiqek9aww5jBiFe68D/ya1Pw38YkdSszHLy+cy3goxkHJ01+vPKjv84+++zynrY2W67z2lStWPLhpbRoDeXFN+1Hi9G118nwWr0C+TTyNkChuGRGHsF9Mos3DN6DH/zg8vx6VvBhjLUHddLOXd207TbXaMpH94rH7fG4fyhwrtm35XHLVTemdGvfHt2Z706U85GR8zEiah4G94cTuq7iMot7O5bzIOL0U9ak047PA5u7PvZbEvQFnaIT9E+/6CN97B5ZoBNmaXTbwIzhJuv6GMiXa0GfGqB/8pOfLIb7jW98YxlYcdx21LNP8ikbDMjICPklz+p2JC/kTbonP/nJZTAceQIhTxyIgWHQK4h3VIa9D3TDqhF9lU4dZE+b3vrWtxY9QIO2kuOgg/zTMR8FIuPR5hp0gFO1GiQ9OxnxAsQgPj5Kw36wE5/5zGeKs48fkjGwVUe8RRH5AX/ZYj+riY/orCG9fmPP8URbgg9CtFv9gji2S56w8+L1G9uFN2xx8KwGuvCWPeLovSmhvllin3K6DLDGYkjEE3zCMY3TBczEaAqnQ4Jx0VE6jSDYDETZnBNwPxunY43QCItZHYOuAwmNvAF1mAmvttPlTAgmmhiTuLeQ0wX02zxiCZTyxyBDm+LcaJTj4tgZGgqk/d5D5aDwhJJF+cHLUCLX6MAXHyoY53Sl05dGpwwUXoRTFaK/9A9l0WYKrX8otDZYrjLLwBP9xMB4TmfJCw3qoDSUp3a6eKYcAxDlokPd2oFueRkY7wp7nlvTrgyjdfcZFQqqH+QVov2MsXMGuTbGy4ESLL0eeEAnbdth5tobpPSb1fNn+Ne/iKNdx9vzROzyG3qz3X70INTo6MbhG8OJMkpzFkgzuByTN2bezu91bCedcWo2lBtGJF4G9IslZoM7BpvxFUfWyYCja7pIvskOuTDoCjmTj6yRMz+wcdZZZ6V3vvOdxQGTeX3+sIc9rNimup/D6UpHtslCOP5wujbm2ck/SjY4Da/M0UP0SxMyFudsI/2Qhg2j22wXueRc4kt8bCra6BQ61I8+emmmbnCovFGg65y3PGRe3dotKA8N6vdrbCYobAed5qgd0YTPaAgdC1sRWMzpgrroqf7g4JWjLeiJo4ETh6rf9KG2O2d72S38oO9ohugPecFRXxm0sNM+0HO3d7pmKrXTBQzSIUtxumCUZ0SojtqoY7agbIKrbkLDwAuESGfFbCacXEBHQzhdz/4sfyizxko4XYoVShQwMHF/IaerHZyI0SthDKOjLYJzNMprwGJzEWNDiSlT8FFafAPGQXptwde4hy8MyjinCxyhWaNff6J46lcWurTNtaNrimaWYWDGQAroQh+jqJ8iPd4YxaKJ0eV00RB9ZjDhWZ56pZFWPjTajOHoy2R4WctiAD1mFwYo+Bi0Kh/9zvHAgEX/MmpR93KBjXYi+8DFDdtsFOs53WBv79iT8YJ8WJNnxGa4V2Sn6zdw3Sqhd3s+xE/qePvHAYYiopxuFR+nlrd35Nn3cUd00qMfsCYdtwXN/ZszBFnwPj5nSUfwRV8My1f0P90w4OYwQ87oL/nXn+SUvNBjRzMpOrWY01VHOHq6IR2na2A6SjbEcXLK5NTC0QS95BL92sQpG4CiEb3q1Q5p0cl2RfvYHc4JLT4cQ8bDJg1Deu3jrNgx5aBLfISgSWAblC84F4d+Nlu+sB3yRfniJnG68rEXeKl9/IL244VyHOMa74Mf+g5P2AjO1H15BTxEI14oX9Be6azirZTTnY0lmCHqDtGhGBLX00BeM08zUA6NIHBKOhkwWOcSCHUYGXHQlMSR8SUM7snnPBxLBGVEXNA5DPHSDAMd4gnKtIj6QTsJknqUhaaFwBHaGMQQEU4OCC2CsigJZSdoFA0fzNqkU76gLo7ED777qhfgT/DW/XH8qEHofa7x9a9/fRkQoYdBIvjK0i5O3VK4tBTTigR6BF/YQZf0+pGiCNogL/5GvwWcG2BZJre0SAbCeEoraCODNM4YAQPAaOIjGmIQol/QqkwDF4M3xnoSfkwKXexd1pOPzgOl7Hw9my0bpvrOty8aBUVWyjEHEbmLdFMJ+RJVzutnu+U835h3LUjfjxvE9+MixL3B/ZxgENdP633cbXkQcMRhnfTYB65JJx7ZGzisFBhOs1SyxtiSsxj0CmSd3JB7csPosgdkn7Nz1Md4SV5MDPRv6E2EUYh4edVDx9AQejouH5Bpu+bJokc16EI3WZIPDehWrpkomskcpyqOHqA37Kj8ZJ6M25tw5plnlsHjOKDZqs5TnvKUop/KrW1oDWnDFgnS0x+6gGZ6S7drXQR5ah4tBG3Rh36ZLmyBvJE/6nQ0GIk+dFRv9Bme2Thmv4Y+N2DHE/W7P0tdHYUVFPXpEIzTCdF5jJ/jYp0xDoTON3vNQgm5JRidQHB0SozICBYHTTkZUc9Z1E2QjUT9XmrMYkNogkbloi8UYRjRkSCtPPI6Fx/5J0FdftTviFZlTFqWnZEvfOELBxuZKKq24osj3hBwiu7ZK96YkaqfozN7853q5zznOYVf0lMCdQ+3bzFIT/j9CpTnrxTTshCnihaBsWBEYmasL9CENtdmsRSKMdMeAydliNOXFDH4YrZu6c3qhj6TB+2hpOi25GYH6ULA80c84hHpaU97WlFisqQs9bhH9tRrZm4zC8WeJbw/e8oxnXTsFo6sW2aOvKql5OKAS8gykY+absfyIf3xHccHDrpI1sF5/7o40HxSjhHy9SBNFfL/O9NUZQ2O8vXPLSnfvLP3zvHjT1+TTjk2y8zolc2ZQZ9yXq961avKgJO8kGMzRPKi7wSGV5+R+/iimVdVBNfyARti2dSRnPhSmv6udU+d9CACOScXQuhpnX4U3CfzNh0+97nPLfpqwGCFxZG8gYEpnUSjlR3H+u0AjpY+aLM4g2V8iN3dC+mpdvnBl0c96lGFV/QSr9AmH3voGNegjeKlxWNgQ81i1e9e8AdfhODJQnAfv5/3vOeVQQP9NUFST9hzR/XbSxG2Sz9qB54pg094wQteUHZts3NsDgQtwZOF+LIc7BPLy5hnN57lTEwh/MFADCFclh4Eo7/FOicgHWZ7rqZjCKsZjfIEnS+oj3Ayvoy8GZ50jCkBtbtPWZ4XGPmGgqKPQ9BRDDAhZuhr+gi6HcHygraGI9GpZp6WMSjNYkCfJVHPJeQNmoNudPjxBoJGcMZBOs6IQntOijfBD/Q5Bp+0U/lG+trNID31qU8tfCGwllct43AqwUu0oG2hjVQ10Ip3PgpgaU9+QEPQFKGekaoDjRGHPvKiLkaHoWCwzMYporRen/BsWlr046P8DIr+tNz24he/uMjZYsBHI3mDFk5cnyor5EPQ/8q22oLn0s8KutiOZg7Xhy84t+JkDaWx23kO4ty7ZUdKW33SMdIppH8s5yMwMn5EZN298267yMFSsxmuDV2HrkvpCQ9bkx5w8uw2Ti0GMkGfyRh54DD1DdkelnuBbAlkQgjZEqcs8kR3zQL9yIaBey3j9MEjM88g5VMm+QtdIgd0VRkL6aoyzaw5fvrKiZnhhdw7otuxphm96gqHog51cTYcLocU9dZ0D8M9M0d2NJZ1BXUon4yjI3gYNKHDtXZ6vONNAoMDj/DwPvRXOfRdnoc//OHFxqtrHDhnvLaczxbHkr966TI6oh+jDnoZPGdrrRyoS//zOwYkypUWv/DO4MsGTJOKWeos7BNOF4Ms+dm8ECPBGPkYGWGAURKFYSgXEpJhhNB6v9JoVyfrLJ1cd1IonXotZ/qFGh/NdyTsHLEZVCwzCdIyzpYojKYEil3TR/kIqw7mkKNtzgmhPNq22MwKCLmyCEnwKWjBJ87Nt6QZ94UUGaQ3clY3mOXhDb4ETyLgk/Q2jLzoRS8qxkKbCbURvyAfmtDiiC8cqWWcxZwuaAu6OT31gBE6RUBDKHaE+lrfAeVQp1+HeulLX1oMIqWJ0bXBig0eBhnS4pF6gWHRF/IxSBG/EKTR38qh/IyHuAjqJa9hnNBmNj9J2ZMAR72/6+tRHNotO33xqT+77SXJfO85WB/SuC1PjK66KaXde7rpAHJTEvTS3AVV3ODUiVBPAOI8x1dZ5l+Ew831e8/4CQ9Zkx6UHe662T4qWxRkUL/rZ6tfDDwjG05sWK6cRyBj5JpDYIxf8pKXlOBXrOjxsHzTexuzHOUjI9IIZIJNsUw6ia4Cuq3EGcSinx0ymEN3rbNBr/Nwegb0z3jGM8qrO+id1oYaXHL6bAu7xQ6yFaF30S5BHHtBL9hb+qRuK4Y2ZBqEuB+6Jw/+4CFHSvcXo889Np1twRM2Ai8co+11UI8VMTN2ezXUoR38gL02eBm2C11sF3uMHpvZ8HCW6GQGrMwcegpgjAfdOkTDdXIAExlEDoKwYdZSQSA4P7MpI0aGMIRHx2A8Bx9LzQykOPcpJqNN4NCExrhHERlqgjk8StOhZrnq006diuXKcK4ujoETWwyEyvuBlkjRWyurewYLBIVCLyS0NdDCMFAIjsMSDJ5Efu3UJjNHPDFLCKXQBhs28AV/0CSIZwjww1K2/JPSA3jKMSrX6gTna/QpXggoEw/IBEWh6JREvZS4hnweL9jZTAZcB01451wfeoVC+yaFcpRnlcaMl0ygScAL/OV09Y3VEMo8DS8mAQX2takrbuimL1zTzU4Vb3JwM/+x5Ozn8q64sZve/9lu2YDlW8oHZkecSeyl7acvIa4jLv8pjnwo7i7nOQynQ9vu23uz6+O3pPTY09ekB564pnxjeW+DjFqeZHsMOvUTOaOntVnUl2wQmbJ0S1/DNoyDsjxaYNiVp8+j3+mXlQ/f86ar5GQasFvsCZ21UhWDulE0o9NGLwM+18uRPeXTczbIChdbQXfw0T3toOv0kF2z74Oz5bToicE5ncbjmlb2gg6z8eicxsZrNxuEJpMRZSsv2qluDtos36QN34Pf7AoexkxX0Ffy6xf009faH80C+4TT3VvAXJ1GIDCcEmHwrI3iVwqIgtkangA+hPIuZGBWEmjSTwzVsDFEn36jWLMejX4lws7kq7d205ev66YdO/OAoM+q3IXl13ssL3/84rn0+St7s92DDug9TyXuA2eZ04889sOizjcf7RRxtMELCRz+SUd30qPutybd94RO+aTlvoaQMw6MnNUgYxzBvihjaKUb4fgCK6236lInWxGDCnVa3dkbtiLoif4LG44efNCH+wr2a6fb0HB3gx+fN5O9cmtKN92aZ9n9j2HwF8zQ5dd30ye/0E2X51mxT0H6lrOZMBs1z/EKce7Yd6SRzgUzVu657p+zJuXTjjlY+j7qsE467fiUHn7amnTSUb26Ghr2ZzSn29BwNwOn52MY19yYnW8O4XjNeC1inH/FXDr/spS23WbXaSof25jneHPa4kzjGGHoOpwuA1KcbTnxSKL3HvEJR3bSI++TnW6e3W7Z0FvKbmjY39GcbkPD3RC02rPdbTu7aestKV17SzftyM6Xk7w1O9vPX9FNF12Z0i35nAHw8382W3GMHG/9gwiOEEfpncYx0liU9SrQyUd30hmndNI9vdK0qbPqG6YaGvZlNKfb0HA3Rjhfz3Nv2t5N27PjvTU74mtv6jnei6/2e7q993xtrrIkXJ719me+QjEQfSthNutZ8R35jx3JXO4R61O6x5aUjtzcSacek9L977Gm/FqQ3+NtaGiYj+Z0Gxr2A9Byy87ek/Wsd9vOlLZu66ZLru6mC67khPO97JBtsPI8VlpTWLPe3iy454xtitqwLjvn7FAtI68zs93SSQ8+qZPudbwfoO+UpeWYFTc0NMxHc7oNDfshKL1Nujt2dbPzTemK67vpC9kBf/Habrry5uyYOeDseC0z+6H7w7Jz3XxoSsce1kknHZHS8Ud20jHZ2W7O12bInLPQ0NCwMJrTbWjYz8EC+Ik9z3pvNQPenh3xjt7HLHhnz2k35rBpfSdtWJuv82y2zHT7rxs1NDRMjuZ0GxoaGhoaVglr+seGhoaGhoaGFUZzug0NDQ0NDauE5nQbGhoaGhpWCc3pNjQ0NDQ0rBKa021oaGhoaFglNKfb0NDQ0NCwSmhOt6GhoaGhYZXQnG5DQ0NDQ8MqoTndhoaGhoaGVUJzug0NDQ0NDauE5nQbGhoaGhpWCc3pNjQ0NDQ0rBKa021oaGhoaFglNKfb0NDQ0NCwSmhOt6GhoaGhYVWQ0v8HqQ8re1u/iUgAAAAASUVORK5CYII=;" vertex="1" parent="1">
          <mxGeometry x="579" y="-290" width="247.85" height="53" as="geometry" />
        </mxCell>
        <mxCell id="yJo0Ja2LbVW5zeD0Xldv-15" value="" style="endArrow=classic;html=1;rounded=0;entryX=0.043;entryY=0.455;entryDx=0;entryDy=0;entryPerimeter=0;" edge="1" parent="1" target="yJo0Ja2LbVW5zeD0Xldv-10">
          <mxGeometry width="50" height="50" relative="1" as="geometry">
            <mxPoint x="180" y="-400" as="sourcePoint" />
            <mxPoint x="290" y="-450" as="targetPoint" />
          </mxGeometry>
        </mxCell>
        <mxCell id="yJo0Ja2LbVW5zeD0Xldv-17" value="Object&lt;br&gt;Storage" style="text;strokeColor=none;align=center;fillColor=none;html=1;verticalAlign=middle;whiteSpace=wrap;rounded=0;" vertex="1" parent="1">
          <mxGeometry x="525" y="-361.9" width="60" height="30" as="geometry" />
        </mxCell>
        <mxCell id="yJo0Ja2LbVW5zeD0Xldv-18" value="Managed Service for PostgreSQL" style="text;strokeColor=none;align=center;fillColor=none;html=1;verticalAlign=middle;whiteSpace=wrap;rounded=0;" vertex="1" parent="1">
          <mxGeometry x="672.63" y="-361.9" width="64.75" height="30" as="geometry" />
        </mxCell>
        <mxCell id="yJo0Ja2LbVW5zeD0Xldv-19" value="DataLense" style="text;strokeColor=none;align=center;fillColor=none;html=1;verticalAlign=middle;whiteSpace=wrap;rounded=0;" vertex="1" parent="1">
          <mxGeometry x="823.88" y="-370" width="60" height="30" as="geometry" />
        </mxCell>
        <mxCell id="yJo0Ja2LbVW5zeD0Xldv-20" value="" style="rounded=1;whiteSpace=wrap;html=1;fillColor=none;" vertex="1" parent="1">
          <mxGeometry x="800" y="-450" width="110" height="130" as="geometry" />
        </mxCell>
        <mxCell id="yJo0Ja2LbVW5zeD0Xldv-21" value="BI Tool" style="text;strokeColor=none;align=center;fillColor=none;html=1;verticalAlign=middle;whiteSpace=wrap;rounded=0;" vertex="1" parent="1">
          <mxGeometry x="825" y="-480" width="60" height="30" as="geometry" />
        </mxCell>
        <mxCell id="yJo0Ja2LbVW5zeD0Xldv-22" value="Data Storage" style="text;strokeColor=none;align=center;fillColor=none;html=1;verticalAlign=middle;whiteSpace=wrap;rounded=0;" vertex="1" parent="1">
          <mxGeometry x="526.25" y="-480" width="60" height="30" as="geometry" />
        </mxCell>
        <mxCell id="yJo0Ja2LbVW5zeD0Xldv-23" value="Data Warehouse" style="text;strokeColor=none;align=center;fillColor=none;html=1;verticalAlign=middle;whiteSpace=wrap;rounded=0;" vertex="1" parent="1">
          <mxGeometry x="675" y="-480" width="60" height="30" as="geometry" />
        </mxCell>
        <mxCell id="yJo0Ja2LbVW5zeD0Xldv-25" value="" style="rounded=1;whiteSpace=wrap;html=1;fillColor=none;" vertex="1" parent="1">
          <mxGeometry x="500" y="-446.9" width="110" height="130" as="geometry" />
        </mxCell>
        <mxCell id="yJo0Ja2LbVW5zeD0Xldv-26" value="CSV" style="text;strokeColor=none;align=center;fillColor=none;html=1;verticalAlign=middle;whiteSpace=wrap;rounded=0;" vertex="1" parent="1">
          <mxGeometry x="210" y="-430" width="60" height="30" as="geometry" />
        </mxCell>
        <mxCell id="yJo0Ja2LbVW5zeD0Xldv-27" value="" style="endArrow=classic;html=1;rounded=0;entryX=0.003;entryY=0.361;entryDx=0;entryDy=0;entryPerimeter=0;exitX=1.001;exitY=0.478;exitDx=0;exitDy=0;exitPerimeter=0;" edge="1" parent="1" source="yJo0Ja2LbVW5zeD0Xldv-9" target="yJo0Ja2LbVW5zeD0Xldv-25">
          <mxGeometry width="50" height="50" relative="1" as="geometry">
            <mxPoint x="470" y="-397.16" as="sourcePoint" />
            <mxPoint x="500" y="-397.16" as="targetPoint" />
          </mxGeometry>
        </mxCell>
        <mxCell id="yJo0Ja2LbVW5zeD0Xldv-29" value="" style="endArrow=classic;html=1;rounded=0;exitX=1.001;exitY=0.478;exitDx=0;exitDy=0;exitPerimeter=0;entryX=0.557;entryY=0.455;entryDx=0;entryDy=0;entryPerimeter=0;" edge="1" parent="1" target="yJo0Ja2LbVW5zeD0Xldv-10">
          <mxGeometry width="50" height="50" relative="1" as="geometry">
            <mxPoint x="610" y="-400" as="sourcePoint" />
            <mxPoint x="628" y="-400" as="targetPoint" />
          </mxGeometry>
        </mxCell>
        <mxCell id="yJo0Ja2LbVW5zeD0Xldv-30" value="" style="endArrow=classic;html=1;rounded=0;exitX=1.001;exitY=0.478;exitDx=0;exitDy=0;exitPerimeter=0;entryX=0.557;entryY=0.455;entryDx=0;entryDy=0;entryPerimeter=0;" edge="1" parent="1">
          <mxGeometry width="50" height="50" relative="1" as="geometry">
            <mxPoint x="760" y="-400" as="sourcePoint" />
            <mxPoint x="800" y="-400" as="targetPoint" />
          </mxGeometry>
        </mxCell>
      </root>
    </mxGraphModel>
  </diagram>
</mxfile>
